<?xml version="1.0" encoding="UTF-8" standalone="no"?><!DOCTYPE svg PUBLIC "-//W3C//DTD SVG 1.1//EN" "http://www.w3.org/Graphics/SVG/1.1/DTD/svg11.dtd"><svg width="100%" height="100%" viewBox="0 0 3334 2500" version="1.1" xmlns="http://www.w3.org/2000/svg" xmlns:xlink="http://www.w3.org/1999/xlink" xml:space="preserve" xmlns:serif="http://www.serif.com/" style="fill-rule:evenodd;clip-rule:evenodd;stroke-linecap:round;stroke-linejoin:round;stroke-miterlimit:1.5;"><ellipse cx="1550.36" cy="1189.56" rx="520.606" ry="528.996" style="fill:#dbad56;stroke:#eb8c49;stroke-width:33.29px;"/><path d="M678.354,987.13l-278.897,262.027l831.371,884.895l278.897,-262.026l-831.371,-884.896Z" style="fill:#fff;stroke:#000;stroke-width:33.29px;"/><path d="M1819.59,1504.55l-255.192,-237.409l-582.231,625.841l255.192,237.409l582.231,-625.841Z" style="fill:#fff;stroke:#000;stroke-width:33.29px;"/><path d="M2368.38,840.422l310.159,216.056l-658.068,1000.31l-310.159,-216.056l658.068,-1000.31Z" style="fill:#fff;stroke:#000;stroke-width:33.29px;"/><path d="M1335.31,1526.57l228.329,-256.745l616.078,577.838l-228.329,256.746l-616.078,-577.839Z" style="fill:#fff;stroke:#000;stroke-width:33.29px;"/><circle cx="1229.88" cy="997.459" r="50.826" style="fill:#da2b1d;"/><circle cx="1169.53" cy="1178.53" r="50.826" style="fill:#da2b1d;"/><circle cx="1376.01" cy="1200.76" r="50.826" style="fill:#da2b1d;"/><circle cx="1395.07" cy="851.334" r="50.826" style="fill:#da2b1d;"/><circle cx="1242.59" cy="1412.01" r="50.826" style="fill:#da2b1d;"/><circle cx="1449.07" cy="1048.29" r="50.826" style="fill:#da2b1d;"/><circle cx="1652.37" cy="1102.29" r="50.826" style="fill:#da2b1d;"/><circle cx="1750.85" cy="1248.41" r="50.826" style="fill:#da2b1d;"/><circle cx="1649.19" cy="889.454" r="50.826" style="fill:#da2b1d;"/><circle cx="1833.44" cy="994.282" r="50.826" style="fill:#da2b1d;"/><circle cx="1922.38" cy="1200.76" r="50.826" style="fill:#da2b1d;"/><circle cx="1874.74" cy="1381.83" r="50.826" style="fill:#da2b1d;"/><circle cx="1538.01" cy="765.565" r="50.826" style="fill:#da2b1d;"/></svg>